<?xml version="1.0" encoding="UTF-8" standalone="no"?>
<svg
   width="720"
   height="880"
   version="1.1"
   id="svg660"
   sodipodi:docname="design-problog-architecture.svg"
   inkscape:version="1.1.1 (3bf5ae0d25, 2021-09-20)"
   xmlns:inkscape="http://www.inkscape.org/namespaces/inkscape"
   xmlns:sodipodi="http://sodipodi.sourceforge.net/DTD/sodipodi-0.dtd"
   xmlns:xlink="http://www.w3.org/1999/xlink"
   xmlns="http://www.w3.org/2000/svg"
   xmlns:svg="http://www.w3.org/2000/svg">
  <defs
     id="defs664">
    <defs
       id="defs656">
      <path
         fill="#333"
         d="M185-189c-5-48-123-54-124 2 14 75 158 14 163 119 3 78-121 87-175 55-17-10-28-26-33-46l33-7c5 56 141 63 141-1 0-78-155-14-162-118-5-82 145-84 179-34 5 7 8 16 11 25"
         id="A" />
      <path
         fill="#333"
         d="M100-194c62-1 85 37 85 99 1 63-27 99-86 99S16-35 15-95c0-66 28-99 85-99zM99-20c44 1 53-31 53-75 0-43-8-75-51-75s-53 32-53 75 10 74 51 75"
         id="B" />
      <path
         fill="#333"
         d="M24 0v-261h32V0H24"
         id="C" />
      <path
         fill="#333"
         d="M108 0H70L1-190h34L89-25l56-165h34"
         id="D" />
      <path
         fill="#333"
         d="M100-194c63 0 86 42 84 106H49c0 40 14 67 53 68 26 1 43-12 49-29l28 8c-11 28-37 45-77 45C44 4 14-33 15-96c1-61 26-98 85-98zm52 81c6-60-76-77-97-28-3 7-6 17-6 28h103"
         id="E" />
      <path
         fill="#333"
         d="M114-163C36-179 61-72 57 0H25l-1-190h30c1 12-1 29 2 39 6-27 23-49 58-41v29"
         id="F" />
      <g
         id="a">
        <use
           transform="matrix(0.049382716049382706,0,0,0.049382716049382706,0,0)"
           xlink:href="#A"
           id="use204" />
        <use
           transform="matrix(0.049382716049382706,0,0,0.049382716049382706,11.85185185185185,0)"
           xlink:href="#B"
           id="use206" />
        <use
           transform="matrix(0.049382716049382706,0,0,0.049382716049382706,21.728395061728392,0)"
           xlink:href="#C"
           id="use208" />
        <use
           transform="matrix(0.049382716049382706,0,0,0.049382716049382706,25.629629629629626,0)"
           xlink:href="#D"
           id="use210" />
        <use
           transform="matrix(0.049382716049382706,0,0,0.049382716049382706,34.51851851851851,0)"
           xlink:href="#E"
           id="use212" />
        <use
           transform="matrix(0.049382716049382706,0,0,0.049382716049382706,44.39506172839505,0)"
           xlink:href="#F"
           id="use214" />
      </g>
      <path
         fill="#333"
         d="M33 0v-248h34V0H33"
         id="G" />
      <path
         fill="#333"
         d="M117-194c89-4 53 116 60 194h-32v-121c0-31-8-49-39-48C34-167 62-67 57 0H25l-1-190h30c1 10-1 24 2 32 11-22 29-35 61-36"
         id="H" />
      <path
         fill="#333"
         d="M59-47c-2 24 18 29 38 22v24C64 9 27 4 27-40v-127H5v-23h24l9-43h21v43h35v23H59v120"
         id="I" />
      <path
         fill="#333"
         d="M101-234c-31-9-42 10-38 44h38v23H63V0H32v-167H5v-23h27c-7-52 17-82 69-68v24"
         id="J" />
      <path
         fill="#333"
         d="M141-36C126-15 110 5 73 4 37 3 15-17 15-53c-1-64 63-63 125-63 3-35-9-54-41-54-24 1-41 7-42 31l-33-3c5-37 33-52 76-52 45 0 72 20 72 64v82c-1 20 7 32 28 27v20c-31 9-61-2-59-35zM48-53c0 20 12 33 32 33 41-3 63-29 60-74-43 2-92-5-92 41"
         id="K" />
      <path
         fill="#333"
         d="M96-169c-40 0-48 33-48 73s9 75 48 75c24 0 41-14 43-38l32 2c-6 37-31 61-74 61-59 0-76-41-82-99-10-93 101-131 147-64 4 7 5 14 7 22l-32 3c-4-21-16-35-41-35"
         id="L" />
      <g
         id="b">
        <use
           transform="matrix(0.049382716049382706,0,0,0.049382716049382706,0,0)"
           xlink:href="#G"
           id="use223" />
        <use
           transform="matrix(0.049382716049382706,0,0,0.049382716049382706,4.93827160493827,0)"
           xlink:href="#H"
           id="use225" />
        <use
           transform="matrix(0.049382716049382706,0,0,0.049382716049382706,14.814814814814811,0)"
           xlink:href="#I"
           id="use227" />
        <use
           transform="matrix(0.049382716049382706,0,0,0.049382716049382706,19.75308641975308,0)"
           xlink:href="#E"
           id="use229" />
        <use
           transform="matrix(0.049382716049382706,0,0,0.049382716049382706,29.629629629629623,0)"
           xlink:href="#F"
           id="use231" />
        <use
           transform="matrix(0.049382716049382706,0,0,0.049382716049382706,35.50617283950616,0)"
           xlink:href="#J"
           id="use233" />
        <use
           transform="matrix(0.049382716049382706,0,0,0.049382716049382706,40.444444444444436,0)"
           xlink:href="#K"
           id="use235" />
        <use
           transform="matrix(0.049382716049382706,0,0,0.049382716049382706,50.32098765432097,0)"
           xlink:href="#L"
           id="use237" />
        <use
           transform="matrix(0.049382716049382706,0,0,0.049382716049382706,59.20987654320985,0)"
           xlink:href="#E"
           id="use239" />
      </g>
      <g
         id="c">
        <use
           transform="matrix(0.049382716049382706,0,0,0.049382716049382706,0,0)"
           xlink:href="#A"
           id="use242" />
        <use
           transform="matrix(0.049382716049382706,0,0,0.049382716049382706,11.85185185185185,0)"
           xlink:href="#B"
           id="use244" />
        <use
           transform="matrix(0.049382716049382706,0,0,0.049382716049382706,21.728395061728392,0)"
           xlink:href="#C"
           id="use246" />
        <use
           transform="matrix(0.049382716049382706,0,0,0.049382716049382706,25.629629629629626,0)"
           xlink:href="#D"
           id="use248" />
        <use
           transform="matrix(0.049382716049382706,0,0,0.049382716049382706,34.51851851851851,0)"
           xlink:href="#E"
           id="use250" />
        <use
           transform="matrix(0.049382716049382706,0,0,0.049382716049382706,44.39506172839505,0)"
           xlink:href="#F"
           id="use252" />
      </g>
      <path
         fill="#333"
         d="M30-248c87 1 191-15 191 75 0 78-77 80-158 76V0H30v-248zm33 125c57 0 124 11 124-50 0-59-68-47-124-48v98"
         id="M" />
      <path
         fill="#333"
         d="M24-231v-30h32v30H24zM24 0v-190h32V0H24"
         id="N" />
      <path
         fill="#333"
         d="M177-190C167-65 218 103 67 71c-23-6-38-20-44-43l32-5c15 47 100 32 89-28v-30C133-14 115 1 83 1 29 1 15-40 15-95c0-56 16-97 71-98 29-1 48 16 59 35 1-10 0-23 2-32h30zM94-22c36 0 50-32 50-73 0-42-14-75-50-75-39 0-46 34-46 75s6 73 46 73"
         id="O" />
      <g
         id="d">
        <use
           transform="matrix(0.049382716049382706,0,0,0.049382716049382706,0,0)"
           xlink:href="#M"
           id="use258" />
        <use
           transform="matrix(0.049382716049382706,0,0,0.049382716049382706,11.85185185185185,0)"
           xlink:href="#N"
           id="use260" />
        <use
           transform="matrix(0.049382716049382706,0,0,0.049382716049382706,15.753086419753084,0)"
           xlink:href="#C"
           id="use262" />
        <use
           transform="matrix(0.049382716049382706,0,0,0.049382716049382706,19.654320987654316,0)"
           xlink:href="#B"
           id="use264" />
        <use
           transform="matrix(0.049382716049382706,0,0,0.049382716049382706,29.530864197530857,0)"
           xlink:href="#I"
           id="use266" />
        <use
           transform="matrix(0.049382716049382706,0,0,0.049382716049382706,34.469135802469125,0)"
           xlink:href="#N"
           id="use268" />
        <use
           transform="matrix(0.049382716049382706,0,0,0.049382716049382706,38.37037037037036,0)"
           xlink:href="#H"
           id="use270" />
        <use
           transform="matrix(0.049382716049382706,0,0,0.049382716049382706,48.2469135802469,0)"
           xlink:href="#O"
           id="use272" />
      </g>
      <path
         fill="#333"
         d="M30 0v-248h187v28H63v79h144v27H63v87h162V0H30"
         id="P" />
      <g
         id="e">
        <use
           transform="matrix(0.049382716049382706,0,0,0.049382716049382706,0,0)"
           xlink:href="#P"
           id="use276" />
        <use
           transform="matrix(0.049382716049382706,0,0,0.049382716049382706,11.85185185185185,0)"
           xlink:href="#H"
           id="use278" />
        <use
           transform="matrix(0.049382716049382706,0,0,0.049382716049382706,21.728395061728392,0)"
           xlink:href="#O"
           id="use280" />
        <use
           transform="matrix(0.049382716049382706,0,0,0.049382716049382706,31.604938271604933,0)"
           xlink:href="#N"
           id="use282" />
        <use
           transform="matrix(0.049382716049382706,0,0,0.049382716049382706,35.50617283950616,0)"
           xlink:href="#H"
           id="use284" />
        <use
           transform="matrix(0.049382716049382706,0,0,0.049382716049382706,45.38271604938271,0)"
           xlink:href="#E"
           id="use286" />
      </g>
      <path
         fill="#333"
         d="M194 0L95-120 63-95V0H30v-248h33v124l119-124h40L117-140 236 0h-42"
         id="Q" />
      <path
         fill="#333"
         d="M206 0h-36l-40-164L89 0H53L-1-190h32L70-26l43-164h34l41 164 42-164h31"
         id="R" />
      <path
         fill="#333"
         d="M85-194c31 0 48 13 60 33l-1-100h32l1 261h-30c-2-10 0-23-3-31C134-8 116 4 85 4 32 4 16-35 15-94c0-66 23-100 70-100zm9 24c-40 0-46 34-46 75 0 40 6 74 45 74 42 0 51-32 51-76 0-42-9-74-50-73"
         id="S" />
      <g
         id="f">
        <use
           transform="matrix(0.049382716049382706,0,0,0.049382716049382706,0,0)"
           xlink:href="#Q"
           id="use292" />
        <use
           transform="matrix(0.049382716049382706,0,0,0.049382716049382706,11.85185185185185,0)"
           xlink:href="#H"
           id="use294" />
        <use
           transform="matrix(0.049382716049382706,0,0,0.049382716049382706,21.728395061728392,0)"
           xlink:href="#B"
           id="use296" />
        <use
           transform="matrix(0.049382716049382706,0,0,0.049382716049382706,31.604938271604933,0)"
           xlink:href="#R"
           id="use298" />
        <use
           transform="matrix(0.049382716049382706,0,0,0.049382716049382706,44.395061728395056,0)"
           xlink:href="#C"
           id="use300" />
        <use
           transform="matrix(0.049382716049382706,0,0,0.049382716049382706,48.29629629629629,0)"
           xlink:href="#E"
           id="use302" />
        <use
           transform="matrix(0.049382716049382706,0,0,0.049382716049382706,58.17283950617284,0)"
           xlink:href="#S"
           id="use304" />
        <use
           transform="matrix(0.049382716049382706,0,0,0.049382716049382706,68.04938271604938,0)"
           xlink:href="#O"
           id="use306" />
        <use
           transform="matrix(0.049382716049382706,0,0,0.049382716049382706,77.92592592592592,0)"
           xlink:href="#E"
           id="use308" />
      </g>
      <path
         fill="#333"
         d="M233-177c-1 41-23 64-60 70L243 0h-38l-65-103H63V0H30v-248c88 3 205-21 203 71zM63-129c60-2 137 13 137-47 0-61-80-42-137-45v92"
         id="T" />
      <path
         fill="#333"
         d="M210-169c-67 3-38 105-44 169h-31v-121c0-29-5-50-35-48C34-165 62-65 56 0H25l-1-190h30c1 10-1 24 2 32 10-44 99-50 107 0 11-21 27-35 58-36 85-2 47 119 55 194h-31v-121c0-29-5-49-35-48"
         id="U" />
      <path
         fill="#333"
         d="M115-194c55 1 70 41 70 98S169 2 115 4C84 4 66-9 55-30l1 105H24l-1-265h31l2 30c10-21 28-34 59-34zm-8 174c40 0 45-34 45-75s-6-73-45-74c-42 0-51 32-51 76 0 43 10 73 51 73"
         id="V" />
      <g
         id="g">
        <use
           transform="matrix(0.049382716049382706,0,0,0.049382716049382706,0,0)"
           xlink:href="#T"
           id="use314" />
        <use
           transform="matrix(0.049382716049382706,0,0,0.049382716049382706,12.790123456790122,0)"
           xlink:href="#E"
           id="use316" />
        <use
           transform="matrix(0.049382716049382706,0,0,0.049382716049382706,22.666666666666664,0)"
           xlink:href="#L"
           id="use318" />
        <use
           transform="matrix(0.049382716049382706,0,0,0.049382716049382706,31.55555555555555,0)"
           xlink:href="#B"
           id="use320" />
        <use
           transform="matrix(0.049382716049382706,0,0,0.049382716049382706,41.43209876543209,0)"
           xlink:href="#U"
           id="use322" />
        <use
           transform="matrix(0.049382716049382706,0,0,0.049382716049382706,56.19753086419752,0)"
           xlink:href="#V"
           id="use324" />
        <use
           transform="matrix(0.049382716049382706,0,0,0.049382716049382706,66.07407407407406,0)"
           xlink:href="#N"
           id="use326" />
        <use
           transform="matrix(0.049382716049382706,0,0,0.049382716049382706,69.97530864197529,0)"
           xlink:href="#C"
           id="use328" />
        <use
           transform="matrix(0.049382716049382706,0,0,0.049382716049382706,73.87654320987652,0)"
           xlink:href="#K"
           id="use330" />
        <use
           transform="matrix(0.049382716049382706,0,0,0.049382716049382706,83.75308641975306,0)"
           xlink:href="#I"
           id="use332" />
        <use
           transform="matrix(0.049382716049382706,0,0,0.049382716049382706,88.69135802469133,0)"
           xlink:href="#N"
           id="use334" />
        <use
           transform="matrix(0.049382716049382706,0,0,0.049382716049382706,92.59259259259255,0)"
           xlink:href="#B"
           id="use336" />
        <use
           transform="matrix(0.049382716049382706,0,0,0.049382716049382706,102.4691358024691,0)"
           xlink:href="#H"
           id="use338" />
      </g>
      <g
         id="h">
        <use
           transform="matrix(0.049382716049382706,0,0,0.049382716049382706,0,0)"
           xlink:href="#G"
           id="use341" />
        <use
           transform="matrix(0.049382716049382706,0,0,0.049382716049382706,4.93827160493827,0)"
           xlink:href="#H"
           id="use343" />
        <use
           transform="matrix(0.049382716049382706,0,0,0.049382716049382706,14.814814814814811,0)"
           xlink:href="#I"
           id="use345" />
        <use
           transform="matrix(0.049382716049382706,0,0,0.049382716049382706,19.75308641975308,0)"
           xlink:href="#E"
           id="use347" />
        <use
           transform="matrix(0.049382716049382706,0,0,0.049382716049382706,29.629629629629623,0)"
           xlink:href="#F"
           id="use349" />
        <use
           transform="matrix(0.049382716049382706,0,0,0.049382716049382706,35.50617283950616,0)"
           xlink:href="#H"
           id="use351" />
        <use
           transform="matrix(0.049382716049382706,0,0,0.049382716049382706,45.38271604938271,0)"
           xlink:href="#K"
           id="use353" />
        <use
           transform="matrix(0.049382716049382706,0,0,0.049382716049382706,55.259259259259245,0)"
           xlink:href="#C"
           id="use355" />
      </g>
      <g
         id="i">
        <use
           transform="matrix(0.049382716049382706,0,0,0.049382716049382706,0,0)"
           xlink:href="#M"
           id="use358" />
        <use
           transform="matrix(0.049382716049382706,0,0,0.049382716049382706,11.85185185185185,0)"
           xlink:href="#F"
           id="use360" />
        <use
           transform="matrix(0.049382716049382706,0,0,0.049382716049382706,17.728395061728392,0)"
           xlink:href="#B"
           id="use362" />
        <use
           transform="matrix(0.049382716049382706,0,0,0.049382716049382706,27.604938271604933,0)"
           xlink:href="#C"
           id="use364" />
        <use
           transform="matrix(0.049382716049382706,0,0,0.049382716049382706,31.506172839506167,0)"
           xlink:href="#B"
           id="use366" />
        <use
           transform="matrix(0.049382716049382706,0,0,0.049382716049382706,41.38271604938271,0)"
           xlink:href="#O"
           id="use368" />
      </g>
      <g
         id="j">
        <use
           transform="matrix(0.049382716049382706,0,0,0.049382716049382706,0,0)"
           xlink:href="#A"
           id="use371" />
        <use
           transform="matrix(0.049382716049382706,0,0,0.049382716049382706,11.85185185185185,0)"
           xlink:href="#B"
           id="use373" />
        <use
           transform="matrix(0.049382716049382706,0,0,0.049382716049382706,21.728395061728392,0)"
           xlink:href="#C"
           id="use375" />
        <use
           transform="matrix(0.049382716049382706,0,0,0.049382716049382706,25.629629629629626,0)"
           xlink:href="#D"
           id="use377" />
        <use
           transform="matrix(0.049382716049382706,0,0,0.049382716049382706,34.51851851851851,0)"
           xlink:href="#E"
           id="use379" />
        <use
           transform="matrix(0.049382716049382706,0,0,0.049382716049382706,44.39506172839505,0)"
           xlink:href="#F"
           id="use381" />
      </g>
      <g
         id="k">
        <use
           transform="matrix(0.049382716049382706,0,0,0.049382716049382706,0,0)"
           xlink:href="#M"
           id="use384" />
        <use
           transform="matrix(0.049382716049382706,0,0,0.049382716049382706,11.85185185185185,0)"
           xlink:href="#F"
           id="use386" />
        <use
           transform="matrix(0.049382716049382706,0,0,0.049382716049382706,17.728395061728392,0)"
           xlink:href="#B"
           id="use388" />
        <use
           transform="matrix(0.049382716049382706,0,0,0.049382716049382706,27.604938271604933,0)"
           xlink:href="#C"
           id="use390" />
        <use
           transform="matrix(0.049382716049382706,0,0,0.049382716049382706,31.506172839506167,0)"
           xlink:href="#B"
           id="use392" />
        <use
           transform="matrix(0.049382716049382706,0,0,0.049382716049382706,41.38271604938271,0)"
           xlink:href="#O"
           id="use394" />
      </g>
      <g
         id="l">
        <use
           transform="matrix(0.049382716049382706,0,0,0.049382716049382706,0,0)"
           xlink:href="#Q"
           id="use397" />
        <use
           transform="matrix(0.049382716049382706,0,0,0.049382716049382706,11.85185185185185,0)"
           xlink:href="#H"
           id="use399" />
        <use
           transform="matrix(0.049382716049382706,0,0,0.049382716049382706,21.728395061728392,0)"
           xlink:href="#B"
           id="use401" />
        <use
           transform="matrix(0.049382716049382706,0,0,0.049382716049382706,31.604938271604933,0)"
           xlink:href="#R"
           id="use403" />
        <use
           transform="matrix(0.049382716049382706,0,0,0.049382716049382706,44.395061728395056,0)"
           xlink:href="#C"
           id="use405" />
        <use
           transform="matrix(0.049382716049382706,0,0,0.049382716049382706,48.29629629629629,0)"
           xlink:href="#E"
           id="use407" />
        <use
           transform="matrix(0.049382716049382706,0,0,0.049382716049382706,58.17283950617284,0)"
           xlink:href="#S"
           id="use409" />
        <use
           transform="matrix(0.049382716049382706,0,0,0.049382716049382706,68.04938271604938,0)"
           xlink:href="#O"
           id="use411" />
        <use
           transform="matrix(0.049382716049382706,0,0,0.049382716049382706,77.92592592592592,0)"
           xlink:href="#E"
           id="use413" />
      </g>
      <path
         fill="#333"
         d="M160-131c35 5 61 23 61 61C221 17 115-2 30 0v-248c76 3 177-17 177 60 0 33-19 50-47 57zm-97-11c50-1 110 9 110-42 0-47-63-36-110-37v79zm0 115c55-2 124 14 124-45 0-56-70-42-124-44v89"
         id="W" />
      <path
         fill="#333"
         d="M135-143c-3-34-86-38-87 0 15 53 115 12 119 90S17 21 10-45l28-5c4 36 97 45 98 0-10-56-113-15-118-90-4-57 82-63 122-42 12 7 21 19 24 35"
         id="X" />
      <g
         id="m">
        <use
           transform="matrix(0.049382716049382706,0,0,0.049382716049382706,0,0)"
           xlink:href="#W"
           id="use418" />
        <use
           transform="matrix(0.049382716049382706,0,0,0.049382716049382706,11.85185185185185,0)"
           xlink:href="#K"
           id="use420" />
        <use
           transform="matrix(0.049382716049382706,0,0,0.049382716049382706,21.728395061728392,0)"
           xlink:href="#X"
           id="use422" />
        <use
           transform="matrix(0.049382716049382706,0,0,0.049382716049382706,30.617283950617278,0)"
           xlink:href="#E"
           id="use424" />
      </g>
      <path
         fill="#333"
         d="M240 0l2-218c-23 76-54 145-80 218h-23L58-218 59 0H30v-248h44l77 211c21-75 51-140 76-211h43V0h-30"
         id="Y" />
      <path
         fill="#333"
         d="M16-82v-28h88v28H16"
         id="Z" />
      <g
         id="n">
        <use
           transform="matrix(0.049382716049382706,0,0,0.049382716049382706,0,0)"
           xlink:href="#Y"
           id="use429" />
        <use
           transform="matrix(0.049382716049382706,0,0,0.049382716049382706,14.765432098765428,0)"
           xlink:href="#E"
           id="use431" />
        <use
           transform="matrix(0.049382716049382706,0,0,0.049382716049382706,24.641975308641968,0)"
           xlink:href="#I"
           id="use433" />
        <use
           transform="matrix(0.049382716049382706,0,0,0.049382716049382706,29.58024691358024,0)"
           xlink:href="#K"
           id="use435" />
        <use
           transform="matrix(0.049382716049382706,0,0,0.049382716049382706,39.456790123456784,0)"
           xlink:href="#Z"
           id="use437" />
        <use
           transform="matrix(0.049382716049382706,0,0,0.049382716049382706,45.33333333333333,0)"
           xlink:href="#M"
           id="use439" />
        <use
           transform="matrix(0.049382716049382706,0,0,0.049382716049382706,57.185185185185176,0)"
           xlink:href="#F"
           id="use441" />
        <use
           transform="matrix(0.049382716049382706,0,0,0.049382716049382706,63.061728395061714,0)"
           xlink:href="#E"
           id="use443" />
        <use
           transform="matrix(0.049382716049382706,0,0,0.049382716049382706,72.93827160493827,0)"
           xlink:href="#S"
           id="use445" />
        <use
           transform="matrix(0.049382716049382706,0,0,0.049382716049382706,82.81481481481481,0)"
           xlink:href="#N"
           id="use447" />
        <use
           transform="matrix(0.049382716049382706,0,0,0.049382716049382706,86.71604938271604,0)"
           xlink:href="#L"
           id="use449" />
        <use
           transform="matrix(0.049382716049382706,0,0,0.049382716049382706,95.60493827160492,0)"
           xlink:href="#K"
           id="use451" />
        <use
           transform="matrix(0.049382716049382706,0,0,0.049382716049382706,105.48148148148147,0)"
           xlink:href="#I"
           id="use453" />
        <use
           transform="matrix(0.049382716049382706,0,0,0.049382716049382706,110.41975308641973,0)"
           xlink:href="#E"
           id="use455" />
        <use
           transform="matrix(0.049382716049382706,0,0,0.049382716049382706,120.29629629629628,0)"
           xlink:href="#X"
           id="use457" />
      </g>
      <path
         fill="#333"
         d="M30 0v-248h33v221h125V0H30"
         id="aa" />
      <path
         fill="#333"
         d="M115-194c53 0 69 39 70 98 0 66-23 100-70 100C84 3 66-7 56-30L54 0H23l1-261h32v101c10-23 28-34 59-34zm-8 174c40 0 45-34 45-75 0-40-5-75-45-74-42 0-51 32-51 76 0 43 10 73 51 73"
         id="ab" />
      <path
         fill="#333"
         d="M179-190L93 31C79 59 56 82 12 73V49c39 6 53-20 64-50L1-190h34L92-34l54-156h33"
         id="ac" />
      <g
         id="o">
        <use
           transform="matrix(0.049382716049382706,0,0,0.049382716049382706,0,0)"
           xlink:href="#aa"
           id="use463" />
        <use
           transform="matrix(0.049382716049382706,0,0,0.049382716049382706,9.87654320987654,0)"
           xlink:href="#N"
           id="use465" />
        <use
           transform="matrix(0.049382716049382706,0,0,0.049382716049382706,13.777777777777775,0)"
           xlink:href="#ab"
           id="use467" />
        <use
           transform="matrix(0.049382716049382706,0,0,0.049382716049382706,23.654320987654316,0)"
           xlink:href="#F"
           id="use469" />
        <use
           transform="matrix(0.049382716049382706,0,0,0.049382716049382706,29.530864197530857,0)"
           xlink:href="#K"
           id="use471" />
        <use
           transform="matrix(0.049382716049382706,0,0,0.049382716049382706,39.4074074074074,0)"
           xlink:href="#F"
           id="use473" />
        <use
           transform="matrix(0.049382716049382706,0,0,0.049382716049382706,45.28395061728394,0)"
           xlink:href="#ac"
           id="use475" />
      </g>
      <path
         fill="#333"
         d="M212-179c-10-28-35-45-73-45-59 0-87 40-87 99 0 60 29 101 89 101 43 0 62-24 78-52l27 14C228-24 195 4 139 4 59 4 22-46 18-125c-6-104 99-153 187-111 19 9 31 26 39 46"
         id="ad" />
      <g
         id="p">
        <use
           transform="matrix(0.049382716049382706,0,0,0.049382716049382706,0,0)"
           xlink:href="#ad"
           id="use479" />
        <use
           transform="matrix(0.049382716049382706,0,0,0.049382716049382706,12.790123456790122,0)"
           xlink:href="#C"
           id="use481" />
        <use
           transform="matrix(0.049382716049382706,0,0,0.049382716049382706,16.691358024691354,0)"
           xlink:href="#N"
           id="use483" />
        <use
           transform="matrix(0.049382716049382706,0,0,0.049382716049382706,20.592592592592588,0)"
           xlink:href="#E"
           id="use485" />
        <use
           transform="matrix(0.049382716049382706,0,0,0.049382716049382706,30.46913580246913,0)"
           xlink:href="#H"
           id="use487" />
        <use
           transform="matrix(0.049382716049382706,0,0,0.049382716049382706,40.34567901234567,0)"
           xlink:href="#I"
           id="use489" />
      </g>
      <g
         id="q">
        <use
           transform="matrix(0.049382716049382706,0,0,0.049382716049382706,0,0)"
           xlink:href="#M"
           id="use492" />
        <use
           transform="matrix(0.049382716049382706,0,0,0.049382716049382706,11.85185185185185,0)"
           xlink:href="#F"
           id="use494" />
        <use
           transform="matrix(0.049382716049382706,0,0,0.049382716049382706,17.728395061728392,0)"
           xlink:href="#B"
           id="use496" />
        <use
           transform="matrix(0.049382716049382706,0,0,0.049382716049382706,27.604938271604933,0)"
           xlink:href="#ab"
           id="use498" />
        <use
           transform="matrix(0.049382716049382706,0,0,0.049382716049382706,37.481481481481474,0)"
           xlink:href="#aa"
           id="use500" />
        <use
           transform="matrix(0.049382716049382706,0,0,0.049382716049382706,47.35802469135801,0)"
           xlink:href="#B"
           id="use502" />
        <use
           transform="matrix(0.049382716049382706,0,0,0.049382716049382706,57.234567901234556,0)"
           xlink:href="#O"
           id="use504" />
      </g>
      <g
         id="r">
        <use
           transform="matrix(0.049382716049382706,0,0,0.049382716049382706,0,0)"
           xlink:href="#Q"
           id="use507" />
        <use
           transform="matrix(0.049382716049382706,0,0,0.049382716049382706,11.85185185185185,0)"
           xlink:href="#H"
           id="use509" />
        <use
           transform="matrix(0.049382716049382706,0,0,0.049382716049382706,21.728395061728392,0)"
           xlink:href="#B"
           id="use511" />
        <use
           transform="matrix(0.049382716049382706,0,0,0.049382716049382706,31.604938271604933,0)"
           xlink:href="#R"
           id="use513" />
        <use
           transform="matrix(0.049382716049382706,0,0,0.049382716049382706,44.395061728395056,0)"
           xlink:href="#C"
           id="use515" />
        <use
           transform="matrix(0.049382716049382706,0,0,0.049382716049382706,48.29629629629629,0)"
           xlink:href="#E"
           id="use517" />
        <use
           transform="matrix(0.049382716049382706,0,0,0.049382716049382706,58.17283950617284,0)"
           xlink:href="#S"
           id="use519" />
        <use
           transform="matrix(0.049382716049382706,0,0,0.049382716049382706,68.04938271604938,0)"
           xlink:href="#O"
           id="use521" />
        <use
           transform="matrix(0.049382716049382706,0,0,0.049382716049382706,77.92592592592592,0)"
           xlink:href="#E"
           id="use523" />
      </g>
      <g
         id="s">
        <use
           transform="matrix(0.049382716049382706,0,0,0.049382716049382706,0,0)"
           xlink:href="#W"
           id="use526" />
        <use
           transform="matrix(0.049382716049382706,0,0,0.049382716049382706,11.85185185185185,0)"
           xlink:href="#K"
           id="use528" />
        <use
           transform="matrix(0.049382716049382706,0,0,0.049382716049382706,21.728395061728392,0)"
           xlink:href="#X"
           id="use530" />
        <use
           transform="matrix(0.049382716049382706,0,0,0.049382716049382706,30.617283950617278,0)"
           xlink:href="#E"
           id="use532" />
      </g>
      <path
         fill="#333"
         d="M140-251c81 0 123 46 123 126C263-53 228-8 163 1c7 30 30 48 69 40v23c-55 16-95-15-103-61C56-3 17-48 17-125c0-80 42-126 123-126zm0 227c63 0 89-41 89-101s-29-99-89-99c-61 0-89 39-89 99S79-25 140-24"
         id="ae" />
      <path
         fill="#333"
         d="M84 4C-5 8 30-112 23-190h32v120c0 31 7 50 39 49 72-2 45-101 50-169h31l1 190h-30c-1-10 1-25-2-33-11 22-28 36-60 37"
         id="af" />
      <g
         id="t">
        <use
           transform="matrix(0.049382716049382706,0,0,0.049382716049382706,0,0)"
           xlink:href="#ae"
           id="use537" />
        <use
           transform="matrix(0.049382716049382706,0,0,0.049382716049382706,13.827160493827158,0)"
           xlink:href="#af"
           id="use539" />
        <use
           transform="matrix(0.049382716049382706,0,0,0.049382716049382706,23.7037037037037,0)"
           xlink:href="#E"
           id="use541" />
        <use
           transform="matrix(0.049382716049382706,0,0,0.049382716049382706,33.58024691358024,0)"
           xlink:href="#F"
           id="use543" />
        <use
           transform="matrix(0.049382716049382706,0,0,0.049382716049382706,39.456790123456784,0)"
           xlink:href="#N"
           id="use545" />
        <use
           transform="matrix(0.049382716049382706,0,0,0.049382716049382706,43.35802469135802,0)"
           xlink:href="#E"
           id="use547" />
        <use
           transform="matrix(0.049382716049382706,0,0,0.049382716049382706,53.234567901234556,0)"
           xlink:href="#X"
           id="use549" />
      </g>
      <g
         id="u">
        <use
           transform="matrix(0.049382716049382706,0,0,0.049382716049382706,0,0)"
           xlink:href="#A"
           id="use552" />
        <use
           transform="matrix(0.049382716049382706,0,0,0.049382716049382706,11.85185185185185,0)"
           xlink:href="#B"
           id="use554" />
        <use
           transform="matrix(0.049382716049382706,0,0,0.049382716049382706,21.728395061728392,0)"
           xlink:href="#C"
           id="use556" />
        <use
           transform="matrix(0.049382716049382706,0,0,0.049382716049382706,25.629629629629626,0)"
           xlink:href="#af"
           id="use558" />
        <use
           transform="matrix(0.049382716049382706,0,0,0.049382716049382706,35.50617283950616,0)"
           xlink:href="#I"
           id="use560" />
        <use
           transform="matrix(0.049382716049382706,0,0,0.049382716049382706,40.444444444444436,0)"
           xlink:href="#N"
           id="use562" />
        <use
           transform="matrix(0.049382716049382706,0,0,0.049382716049382706,44.34567901234567,0)"
           xlink:href="#B"
           id="use564" />
        <use
           transform="matrix(0.049382716049382706,0,0,0.049382716049382706,54.222222222222214,0)"
           xlink:href="#H"
           id="use566" />
        <use
           transform="matrix(0.049382716049382706,0,0,0.049382716049382706,64.09876543209876,0)"
           xlink:href="#X"
           id="use568" />
      </g>
      <path
         fill="#333"
         d="M135-150c-39-12-60 13-60 57V0H25l-1-190h47c2 13-1 29 3 40 6-28 27-53 61-41v41"
         id="ag" />
      <path
         fill="#333"
         d="M185-48c-13 30-37 53-82 52C43 2 14-33 14-96s30-98 90-98c62 0 83 45 84 108H66c0 31 8 55 39 56 18 0 30-7 34-22zm-45-69c5-46-57-63-70-21-2 6-4 13-4 21h74"
         id="ah" />
      <path
         fill="#333"
         d="M190-63c-7 42-38 67-86 67-59 0-84-38-90-98-12-110 154-137 174-36l-49 2c-2-19-15-32-35-32-30 0-35 28-38 64-6 74 65 87 74 30"
         id="ai" />
      <path
         fill="#333"
         d="M25-224v-37h50v37H25zM25 0v-190h50V0H25"
         id="aj" />
      <path
         fill="#333"
         d="M128 0H69L1-190h53L99-40l48-150h52"
         id="ak" />
      <path
         fill="#333"
         d="M137-138c1-29-70-34-71-4 15 46 118 7 119 86 1 83-164 76-172 9l43-7c4 19 20 25 44 25 33 8 57-30 24-41C81-84 22-81 20-136c-2-80 154-74 161-7"
         id="al" />
      <g
         id="v">
        <use
           transform="matrix(0.04320987654320988,0,0,0.04320987654320988,0,0)"
           xlink:href="#ag"
           id="use577" />
        <use
           transform="matrix(0.04320987654320988,0,0,0.04320987654320988,6.049382716049383,0)"
           xlink:href="#ah"
           id="use579" />
        <use
           transform="matrix(0.04320987654320988,0,0,0.04320987654320988,14.69135802469136,0)"
           xlink:href="#ai"
           id="use581" />
        <use
           transform="matrix(0.04320987654320988,0,0,0.04320987654320988,23.333333333333336,0)"
           xlink:href="#ah"
           id="use583" />
        <use
           transform="matrix(0.04320987654320988,0,0,0.04320987654320988,31.97530864197531,0)"
           xlink:href="#aj"
           id="use585" />
        <use
           transform="matrix(0.04320987654320988,0,0,0.04320987654320988,36.2962962962963,0)"
           xlink:href="#ak"
           id="use587" />
        <use
           transform="matrix(0.04320987654320988,0,0,0.04320987654320988,44.93827160493828,0)"
           xlink:href="#ah"
           id="use589" />
        <use
           transform="matrix(0.04320987654320988,0,0,0.04320987654320988,53.58024691358024,0)"
           xlink:href="#al"
           id="use591" />
      </g>
      <path
         fill="#333"
         d="M135-194c53 0 70 44 70 98 0 56-19 98-73 100-31 1-45-17-59-34 3 33 2 69 2 105H25l-1-265h48c2 10 0 23 3 31 11-24 29-35 60-35zM114-30c33 0 39-31 40-66 0-38-9-64-40-64-56 0-55 130 0 130"
         id="am" />
      <path
         fill="#333"
         d="M110-194c64 0 96 36 96 99 0 64-35 99-97 99-61 0-95-36-95-99 0-62 34-99 96-99zm-1 164c35 0 45-28 45-65 0-40-10-65-43-65-34 0-45 26-45 65 0 36 10 65 43 65"
         id="an" />
      <path
         fill="#333"
         d="M88-194c31-1 46 15 58 34l-1-101h50l1 261h-48c-2-10 0-23-3-31C134-8 116 4 84 4 32 4 16-41 15-95c0-56 19-97 73-99zm17 164c33 0 40-30 41-66 1-37-9-64-41-64s-38 30-39 65c0 43 13 65 39 65"
         id="ao" />
      <g
         id="w">
        <use
           transform="matrix(0.04320987654320988,0,0,0.04320987654320988,0,0)"
           xlink:href="#am"
           id="use597" />
        <use
           transform="matrix(0.04320987654320988,0,0,0.04320987654320988,9.462962962962964,0)"
           xlink:href="#ag"
           id="use599" />
        <use
           transform="matrix(0.04320987654320988,0,0,0.04320987654320988,15.512345679012347,0)"
           xlink:href="#an"
           id="use601" />
        <use
           transform="matrix(0.04320987654320988,0,0,0.04320987654320988,24.97530864197531,0)"
           xlink:href="#ak"
           id="use603" />
        <use
           transform="matrix(0.04320987654320988,0,0,0.04320987654320988,33.617283950617285,0)"
           xlink:href="#aj"
           id="use605" />
        <use
           transform="matrix(0.04320987654320988,0,0,0.04320987654320988,37.93827160493827,0)"
           xlink:href="#ao"
           id="use607" />
        <use
           transform="matrix(0.04320987654320988,0,0,0.04320987654320988,47.40123456790123,0)"
           xlink:href="#ah"
           id="use609" />
        <use
           transform="matrix(0.04320987654320988,0,0,0.04320987654320988,56.04320987654321,0)"
           xlink:href="#al"
           id="use611" />
      </g>
      <path
         fill="#333"
         d="M85 4C-2 5 27-109 22-190h50c7 57-23 150 33 157 60-5 35-97 40-157h50l1 190h-47c-2-12 1-28-3-38-12 25-28 42-61 42"
         id="ap" />
      <g
         id="x">
        <use
           transform="matrix(0.04320987654320988,0,0,0.04320987654320988,0,0)"
           xlink:href="#ap"
           id="use615" />
        <use
           transform="matrix(0.04320987654320988,0,0,0.04320987654320988,9.462962962962964,0)"
           xlink:href="#al"
           id="use617" />
        <use
           transform="matrix(0.04320987654320988,0,0,0.04320987654320988,18.10493827160494,0)"
           xlink:href="#ah"
           id="use619" />
        <use
           transform="matrix(0.04320987654320988,0,0,0.04320987654320988,26.746913580246915,0)"
           xlink:href="#al"
           id="use621" />
      </g>
      <path
         fill="#333"
         d="M220-157c-53 9-28 100-34 157h-49v-107c1-27-5-49-29-50C55-147 81-57 75 0H25l-1-190h47c2 12-1 28 3 38 10-53 101-56 108 0 13-22 24-43 59-42 82 1 51 116 57 194h-49v-107c-1-25-5-48-29-50"
         id="aq" />
      <path
         fill="#333"
         d="M133-34C117-15 103 5 69 4 32 3 11-16 11-54c-1-60 55-63 116-61 1-26-3-47-28-47-18 1-26 9-28 27l-52-2c7-38 36-58 82-57s74 22 75 68l1 82c-1 14 12 18 25 15v27c-30 8-71 5-69-32zm-48 3c29 0 43-24 42-57-32 0-66-3-65 30 0 17 8 27 23 27"
         id="ar" />
      <path
         fill="#333"
         d="M135-194c87-1 58 113 63 194h-50c-7-57 23-157-34-157-59 0-34 97-39 157H25l-1-190h47c2 12-1 28 3 38 12-26 28-41 61-42"
         id="as" />
      <path
         fill="#333"
         d="M195-6C206 82 75 100 31 46c-4-6-6-13-8-21l49-6c3 16 16 24 34 25 40 0 42-37 40-79-11 22-30 35-61 35-53 0-70-43-70-97 0-56 18-96 73-97 30 0 46 14 59 34l2-30h47zm-90-29c32 0 41-27 41-63 0-35-9-62-40-62-32 0-39 29-40 63 0 36 9 62 39 62"
         id="at" />
      <g
         id="y">
        <use
           transform="matrix(0.04320987654320988,0,0,0.04320987654320988,0,0)"
           xlink:href="#aq"
           id="use628" />
        <use
           transform="matrix(0.04320987654320988,0,0,0.04320987654320988,13.827160493827162,0)"
           xlink:href="#ar"
           id="use630" />
        <use
           transform="matrix(0.04320987654320988,0,0,0.04320987654320988,22.46913580246914,0)"
           xlink:href="#as"
           id="use632" />
        <use
           transform="matrix(0.04320987654320988,0,0,0.04320987654320988,31.9320987654321,0)"
           xlink:href="#ar"
           id="use634" />
        <use
           transform="matrix(0.04320987654320988,0,0,0.04320987654320988,40.574074074074076,0)"
           xlink:href="#at"
           id="use636" />
        <use
           transform="matrix(0.04320987654320988,0,0,0.04320987654320988,50.037037037037045,0)"
           xlink:href="#ah"
           id="use638" />
        <use
           transform="matrix(0.04320987654320988,0,0,0.04320987654320988,58.679012345679006,0)"
           xlink:href="#al"
           id="use640" />
      </g>
      <g
         id="z">
        <use
           transform="matrix(0.049382716049382706,0,0,0.049382716049382706,0,0)"
           xlink:href="#M"
           id="use643" />
        <use
           transform="matrix(0.049382716049382706,0,0,0.049382716049382706,11.85185185185185,0)"
           xlink:href="#F"
           id="use645" />
        <use
           transform="matrix(0.049382716049382706,0,0,0.049382716049382706,17.728395061728392,0)"
           xlink:href="#B"
           id="use647" />
        <use
           transform="matrix(0.049382716049382706,0,0,0.049382716049382706,27.604938271604933,0)"
           xlink:href="#C"
           id="use649" />
        <use
           transform="matrix(0.049382716049382706,0,0,0.049382716049382706,31.506172839506167,0)"
           xlink:href="#B"
           id="use651" />
        <use
           transform="matrix(0.049382716049382706,0,0,0.049382716049382706,41.38271604938271,0)"
           xlink:href="#O"
           id="use653" />
      </g>
    </defs>
  </defs>
  <sodipodi:namedview
     id="namedview662"
     pagecolor="#ffffff"
     bordercolor="#666666"
     borderopacity="1.0"
     inkscape:pageshadow="2"
     inkscape:pageopacity="0.0"
     inkscape:pagecheckerboard="0"
     showgrid="false"
     inkscape:snap-object-midpoints="true"
     inkscape:zoom="1.0092342"
     inkscape:cx="367.11002"
     inkscape:cy="498.89311"
     inkscape:window-width="1920"
     inkscape:window-height="1126"
     inkscape:window-x="1440"
     inkscape:window-y="0"
     inkscape:window-maximized="1"
     inkscape:current-layer="svg660" />
  <path
     d="m 293.03,250 h 87.5 v 60 h -87.5 z"
     fill="none"
     id="path2" />
  <use
     xlink:href="#a"
     transform="translate(311.89121,272.88889)"
     id="use4"
     x="0"
     y="0"
     width="100%"
     height="100%" />
  <use
     xlink:href="#b"
     transform="translate(302.4838,294.22222)"
     id="use6"
     x="0"
     y="0"
     width="100%"
     height="100%" />
  <path
     d="m 20,366 c 0,-3.3 2.7,-6 6,-6 h 668 c 3.3,0 6,2.7 6,6 v 488 c 0,3.3 -2.7,6 -6,6 H 26 c -3.3,0 -6,-2.7 -6,-6 z"
     stroke="#5e5e5e"
     stroke-width="2"
     fill-opacity="0"
     id="path8" />
  <path
     d="m 440,441 c 0,-3.3 2.7,-6 6,-6 h 208 c 3.3,0 6,2.7 6,6 v 93 c 0,3.3 -2.7,6 -6,6 H 446 c -3.3,0 -6,-2.7 -6,-6 z"
     stroke="#5e5e5e"
     stroke-width="3"
     fill="#e5e5e5"
     id="path10" />
  <use
     xlink:href="#c"
     transform="translate(524.8642,469.72222)"
     id="use12"
     x="0"
     y="0"
     width="100%"
     height="100%" />
  <use
     xlink:href="#d"
     transform="translate(520.93827,491.05556)"
     id="use14"
     x="0"
     y="0"
     width="100%"
     height="100%" />
  <use
     xlink:href="#e"
     transform="translate(522.37037,512.38889)"
     id="use16"
     x="0"
     y="0"
     width="100%"
     height="100%" />
  <path
     d="m 60,441 c 0,-3.3 2.7,-6 6,-6 h 153 c 3.3,0 6,2.7 6,6 v 93 c 0,3.3 -2.7,6 -6,6 H 66 c -3.3,0 -6,-2.7 -6,-6 z"
     stroke="#5e5e5e"
     stroke-width="3"
     fill="#f9d2de"
     id="path18" />
  <path
     d="m 60,742 c 0,-3.3 2.7,-6 6,-6 h 588 c 3.3,0 6,2.7 6,6 v 72 c 0,3.3 -2.7,6 -6,6 H 66 c -3.3,0 -6,-2.7 -6,-6 z"
     stroke="#5e5e5e"
     stroke-width="3"
     fill="#c1e4f7"
     id="path26" />
  <use
     xlink:href="#h"
     transform="translate(330.41975,770.88889)"
     id="use28"
     x="0"
     y="0"
     width="100%"
     height="100%" />
  <use
     xlink:href="#i"
     transform="translate(306.76543,792.22222)"
     id="use30"
     x="0"
     y="0"
     width="100%"
     height="100%" />
  <use
     xlink:href="#j"
     transform="translate(362.96296,792.22222)"
     id="use32"
     x="0"
     y="0"
     width="100%"
     height="100%" />
  <path
     d="m 260,441 c 0,-3.3 2.7,-6 6,-6 h 133 c 3.3,0 6,2.7 6,6 v 214 c 0,3.3 -2.7,6 -6,6 H 266 c -3.3,0 -6,-2.7 -6,-6 z"
     fill="#d1bcd2"
     id="path34" />
  <path
     d="m 295.56,435 h 29.55 m 14.8,0 h 29.54 m 14.78,0 H 399 l 3.03,0.82 2.15,2.15 0.82,3.03 v 14.27 m 0,14.26 v 28.54 m 0,14.26 v 28.54 m 0,14.26 v 28.54 m 0,14.26 v 28.54 m 0,14.26 V 655 l -0.82,3.03 -2.15,2.15 L 399,661 h -14.78 m -14.78,0 H 339.9 m -14.8,0 h -29.54 m -14.78,0 H 266 l -3.03,-0.82 -2.15,-2.15 L 260,655 v -14.27 m 0,-14.26 v -28.54 m 0,-14.26 v -28.54 m 0,-14.26 v -28.54 m 0,-14.26 v -28.54 m 0,-14.26 V 441 l 0.82,-3.03 2.15,-2.15 L 266,435 h 14.78"
     stroke="#5e5e5e"
     stroke-width="3"
     fill="none"
     id="path36" />
  <use
     xlink:href="#h"
     transform="translate(302.91975,519.55556)"
     id="use38"
     x="0"
     y="0"
     width="100%"
     height="100%" />
  <use
     xlink:href="#k"
     transform="translate(306.87037,540.88889)"
     id="use40"
     x="0"
     y="0"
     width="100%"
     height="100%" />
  <use
     xlink:href="#l"
     transform="translate(288.59877,562.22222)"
     id="use42"
     x="0"
     y="0"
     width="100%"
     height="100%" />
  <use
     xlink:href="#m"
     transform="translate(312.25309,583.55556)"
     id="use44"
     x="0"
     y="0"
     width="100%"
     height="100%" />
  <path
     d="m 60,582 c 0,-3.3 2.7,-6 6,-6 h 153 c 3.3,0 6,2.7 6,6 v 72 c 0,3.3 -2.7,6 -6,6 H 66 c -3.3,0 -6,-2.7 -6,-6 z"
     stroke="#5e5e5e"
     stroke-width="3"
     fill="#c7e8ac"
     id="path46" />
  <use
     xlink:href="#n"
     transform="translate(77.907407,610.88889)"
     id="use48"
     x="0"
     y="0"
     width="100%"
     height="100%" />
  <use
     xlink:href="#o"
     transform="translate(115.41358,632.22222)"
     id="use50"
     x="0"
     y="0"
     width="100%"
     height="100%" />
  <path
     d="m 342.72,29.75 c 0,5.38 -4.36,9.75 -9.75,9.75 -5.38,0 -9.75,-4.37 -9.75,-9.75 0,-5.38 4.37,-9.75 9.75,-9.75 5.4,0 9.75,4.37 9.75,9.75 z"
     stroke="#5e5e5e"
     stroke-width="2"
     fill="#ffffff"
     id="path52" />
  <path
     d="m 332.97,39.5 v 21.3 c 0,3.3 1.48,8.25 3.3,11.02 L 353.43,98 M 332.96,66.8 312.5,98 m 0,-48.75 h 40.94"
     stroke="#5e5e5e"
     stroke-width="2"
     fill="none"
     id="path54" />
  <path
     d="m 312.5,26 c 0,-3.3 2.7,-6 6,-6 h 28.94 c 3.32,0 6,2.7 6,6 v 88 c 0,3.3 -2.68,6 -6,6 H 318.5 c -3.3,0 -6,-2.7 -6,-6 z"
     fill="none"
     id="path56" />
  <use
     xlink:href="#p"
     transform="translate(310.35802,116.22222)"
     id="use58"
     x="0"
     y="0"
     width="100%"
     height="100%" />
  <path
     d="m 72.5,246 c 0,-3.3 2.7,-6 6,-6 h 128 c 3.3,0 6,2.7 6,6 v 68 c 0,3.3 -2.7,6 -6,6 h -128 c -3.3,0 -6,-2.7 -6,-6 z"
     fill="#d1bcd2"
     id="path60" />
  <path
     d="m 106.94,240 h 28.45 m 14.2,0 h 28.46 m 14.22,0 h 14.22 l 3.03,0.82 2.15,2.15 0.82,3.03 v 11.33 m 0,11.34 v 22.66 m 0,11.34 V 314 l -0.82,3.03 -2.15,2.15 -3.03,0.82 h -14.22 m -14.22,0 H 149.6 m -14.2,0 h -28.46 m -14.22,0 H 78.5 L 75.47,319.18 73.32,317.03 72.5,314 v -11.33 m 0,-11.34 v -22.66 m 0,-11.34 V 246 l 0.82,-3.03 2.15,-2.15 3.03,-0.82 h 14.22"
     stroke="#5e5e5e"
     stroke-width="3"
     fill="none"
     id="path62" />
  <use
     xlink:href="#q"
     transform="translate(108.94444,262.22222)"
     id="use64"
     x="0"
     y="0"
     width="100%"
     height="100%" />
  <use
     xlink:href="#r"
     transform="translate(98.598765,283.55556)"
     id="use66"
     x="0"
     y="0"
     width="100%"
     height="100%" />
  <use
     xlink:href="#s"
     transform="translate(122.25309,304.88889)"
     id="use68"
     x="0"
     y="0"
     width="100%"
     height="100%" />
  <path
     d="m 440.84,246 c 0,-3.3 2.68,-6 6,-6 h 108 c 3.3,0 6,2.7 6,6 v 68 c 0,3.3 -2.7,6 -6,6 h -108 c -3.32,0 -6,-2.7 -6,-6 z"
     fill="#ffeca9"
     id="path70" />
  <path
     d="m 482.84,240 h 36 m 18,0 h 18 l 3.02,0.82 2.16,2.15 0.82,3.03 v 11.33 m 0,11.34 v 22.66 m 0,11.34 V 314 l -0.82,3.03 -2.16,2.15 -3.02,0.82 h -18 m -18,0 h -36 m -18,0 h -18 l -3.03,-0.82 -2.14,-2.15 -0.82,-3.03 v -11.33 m 0,-11.34 v -22.66 m 0,-11.34 V 246 l 0.82,-3.03 2.15,-2.15 3.04,-0.82 h 18"
     stroke="#5e5e5e"
     stroke-width="3"
     fill="none"
     id="path72" />
  <use
     xlink:href="#q"
     transform="translate(467.28052,272.88889)"
     id="use74"
     x="0"
     y="0"
     width="100%"
     height="100%" />
  <use
     xlink:href="#t"
     transform="translate(469.77435,294.22222)"
     id="use76"
     x="0"
     y="0"
     width="100%"
     height="100%" />
  <path
     d="m 545,106 c 0,-3.3 2.7,-6 6,-6 h 108 c 3.3,0 6,2.7 6,6 v 68 c 0,3.3 -2.7,6 -6,6 H 551 c -3.3,0 -6,-2.7 -6,-6 z"
     fill="#ffdba9"
     id="path78" />
  <path
     d="m 587,100 h 36 m 18,0 h 18 l 3.03,0.82 2.15,2.15 0.82,3.03 v 11.33 m 0,11.34 v 22.66 m 0,11.34 V 174 l -0.82,3.03 -2.15,2.15 L 659,180 h -18 m -18,0 h -36 m -18,0 h -18 l -3.03,-0.82 -2.15,-2.15 L 545,174 v -11.33 m 0,-11.34 v -22.66 m 0,-11.34 V 106 l 0.82,-3.03 2.15,-2.15 L 551,100 h 18"
     stroke="#5e5e5e"
     stroke-width="3"
     fill="none"
     id="path80" />
  <use
     xlink:href="#q"
     transform="translate(571.44444,132.88889)"
     id="use82"
     x="0"
     y="0"
     width="100%"
     height="100%" />
  <use
     xlink:href="#u"
     transform="translate(568.50617,154.22222)"
     id="use84"
     x="0"
     y="0"
     width="100%"
     height="100%" />
  <path
     d="m 606,97.5 h -2 v -9.94 h 2 z m -3.45,-35.9 2.53,2.53 0.92,3.4 v 10.1 h -2 v -9.82 l -0.7,-2.64 -1.8,-1.77 -2.63,-0.73 h -10.14 v -2 h 10.4 z m -239.67,1.07 h -10.26 v -2 h 10.26 z m 30.8,0 h -20.53 v -2 h 20.53 z m 30.8,0 h -20.53 v -2 h 20.53 z m 30.8,0 h -20.54 v -2 h 20.54 z m 92.4,0 h -20.54 v -2 h 20.53 z m 30.8,0 h -20.54 v -2 h 20.53 z m -226.86,3.63 -14.27,-4.63 14.27,-4.63 z"
     fill="#5e5e5e"
     id="path86" />
  <path
     d="m 352.62,67.7 -18.5,-6.03 18.5,-6 z m -12.03,-6.03 10.02,3.26 v -6.5 z M 606,98.5 h -2 v -1.03 h 2 z"
     fill="#5e5e5e"
     id="path88" />
  <use
     xlink:href="#v"
     transform="translate(456.8594,64.785478)"
     id="use90"
     x="0"
     y="0"
     width="100%"
     height="100%" />
  <path
     d="m 143.5,220 h -2 v -11.58 h 2 z m 14.92,-39.75 h -9.8 l -2.63,0.7 -1.8,1.8 -0.7,2.63 v 11.45 h -2 v -11.7 l 0.92,-3.43 2.53,-2.53 3.42,-0.92 h 10.05 z m 175.55,-6.87 -0.92,3.42 -2.53,2.53 -3.42,0.92 h -10.04 v -2 h 9.78 l 2.64,-0.7 1.78,-1.8 0.7,-2.63 v -8.58 h 2 z m -26.83,6.87 H 287.3 v -2 h 19.84 z m -101.75,0 h -7.32 v -2 h 7.3 z m -17.24,0 h -19.83 v -2 h 19.83 z m 89.24,0 h -7.32 v -2 h 7.32 z m 56.57,-24.42 h -2 v -17.4 h 2 z m 0,-26.12 h -2 V 121 h 2 z"
     fill="#5e5e5e"
     id="path92" />
  <path
     d="m 333.97,121.03 h -2 V 117 h 2 z M 142.5,235.26 137.86,221 h 9.28 z"
     fill="#5e5e5e"
     id="path94" />
  <path
     d="m 142.5,238.5 -6,-18.5 h 12 z m -3.26,-16.5 3.26,10.03 3.26,-10.03 z"
     fill="#5e5e5e"
     id="path96" />
  <use
     xlink:href="#w"
     transform="translate(205.39315,182.36111)"
     id="use98"
     x="0"
     y="0"
     width="100%"
     height="100%" />
  <path
     d="m 501.84,220 h -2 v -11.58 h 2 z m -3.46,-40.83 2.53,2.53 0.94,3.42 v 11.7 h -2 V 185.4 l -0.72,-2.64 -1.77,-1.78 -2.65,-0.7 h -10.25 v -2 h 10.52 z m -164.4,-6.05 0.7,2.64 1.78,1.78 2.64,0.7 h 10.26 v 2 h -10.52 l -3.42,-0.9 -2.53,-2.54 -0.93,-3.42 v -8.84 h 2 z m 46.56,7.13 h -20.8 v -2 h 20.8 z m 93.5,0 h -20.77 v -2 h 20.78 z M 333.97,155.83 h -2 v -17.4 h 2 z m 0,-26.12 h -2 V 121 h 2 z"
     fill="#5e5e5e"
     id="path100" />
  <path
     d="m 333.97,121.03 h -2 V 117 h 2 z M 500.84,235.26 496.2,221 h 9.27 z"
     fill="#5e5e5e"
     id="path102" />
  <path
     d="M 500.84,238.5 494.82,220 h 12.03 z m -3.26,-16.5 3.26,10.03 3.25,-10.03 z"
     fill="#5e5e5e"
     id="path104" />
  <use
     xlink:href="#w"
     transform="translate(384.56119,182.36111)"
     id="use106"
     x="0"
     y="0"
     width="100%"
     height="100%" />
  <path
     d="M 500.84,322.5 V 415"
     stroke="#5e5e5e"
     stroke-width="2"
     fill="none"
     id="path108" />
  <path
     d="m 501.84,322.53 h -2 v -1.03 h 2 z"
     fill="#5e5e5e"
     id="path110" />
  <path
     d="M 500.84,430.26 496.2,416 h 9.27 z"
     stroke="#5e5e5e"
     stroke-width="2"
     fill="#5e5e5e"
     id="path112" />
  <path
     d="M 605,432.5 V 200"
     stroke="#5e5e5e"
     stroke-width="2"
     fill="none"
     id="path114" />
  <path
     d="m 606,433.5 h -2 v -1.03 h 2 z"
     fill="#5e5e5e"
     id="path116" />
  <path
     d="m 605,184.74 4.64,14.26 h -9.28 z"
     stroke="#5e5e5e"
     stroke-width="2"
     fill="#5e5e5e"
     id="path118" />
  <path
     d="m 142.23,733.5 h -2 v -11.62 h 2 z m 1.27,-39.74 h -2 V 680 h 2 z"
     fill="#5e5e5e"
     id="path120" />
  <path
     d="m 142.23,734.5 h -2 v -1.03 h 2 z m 4.91,-55.5 h -9.28 l 4.64,-14.26 z"
     fill="#5e5e5e"
     id="path122" />
  <path
     d="m 148.5,680 h -12 l 6,-18.5 z m -9.26,-2 h 6.52 l -3.26,-10.03 z"
     fill="#5e5e5e"
     id="path124" />
  <use
     xlink:href="#x"
     transform="translate(123.53581,706.20747)"
     id="use126"
     x="0"
     y="0"
     width="100%"
     height="100%" />
  <path
     d="m 333.34,733.5 h -2 v -11.64 h 2 z m 0.16,-39.72 h -2 V 681 h 2 z M 337.14,680 h -9.28 l 4.64,-14.26 z"
     fill="#5e5e5e"
     id="path128" />
  <path
     d="m 338.5,681 h -12 l 6,-18.5 z m -9.26,-2 h 6.52 l -3.26,-10.03 z m 4.1,55.5 h -2 v -1.03 h 2 z"
     fill="#5e5e5e"
     id="path130" />
  <use
     xlink:href="#x"
     transform="translate(314.64501,706.22717)"
     id="use132"
     x="0"
     y="0"
     width="100%"
     height="100%" />
  <path
     d="m 178.1,432.5 h -2 v -8.83 h 2 z m 151.95,-32.58 2.53,2.53 0.92,3.42 V 415 h -2 v -8.87 l -0.7,-2.64 -1.8,-1.8 -2.63,-0.7 h -9.43 v -2 h 9.7 z M 192.65,401 h -9.43 l -2.64,0.7 -1.77,1.8 -0.7,2.63 v 8.7 h -2 v -8.96 l 0.92,-3.42 2.52,-2.53 3.42,-0.92 h 9.7 z m 28.5,0 H 202.2 v -2 h 18.94 z m 86.23,0 h -18.92 v -2 h 18.92 z"
     fill="#5e5e5e"
     id="path134" />
  <path
     d="m 178.1,433.5 h -2 v -1.03 h 2 z M 332.5,430.26 327.86,416 h 9.28 z"
     fill="#5e5e5e"
     id="path136" />
  <path
     d="m 332.5,433.5 -6,-18.5 h 12 z m -3.26,-16.5 3.26,10.03 3.26,-10.03 z"
     fill="#5e5e5e"
     id="path138" />
  <use
     xlink:href="#y"
     transform="translate(221.13538,403.11111)"
     id="use140"
     x="0"
     y="0"
     width="100%"
     height="100%" />
  <path
     d="M 142.5,322.5 V 415"
     stroke="#5e5e5e"
     stroke-width="2"
     fill="none"
     id="path142" />
  <path
     d="m 143.5,322.53 h -2 v -1.03 h 2 z"
     fill="#5e5e5e"
     id="path144" />
  <path
     d="M 142.5,430.26 137.86,416 h 9.28 z"
     stroke="#5e5e5e"
     stroke-width="2"
     fill="#5e5e5e"
     id="path146" />
  <path
     d="m 440.84,586 c 0,-3.3 2.68,-6 6,-6 H 534 c 3.3,0 6,2.7 6,6 v 67 c 0,3.3 -2.7,6 -6,6 h -87.16 c -3.32,0 -6,-2.7 -6,-6 z"
     fill="#ffeca9"
     id="path148" />
  <path
     d="m 475.9,580 h 29.05 m 14.52,0 H 534 l 3.03,0.82 2.15,2.15 0.82,3.03 v 22.33 m 0,22.34 V 653 l -0.82,3.03 -2.15,2.15 L 534,659 h -14.53 m -14.52,0 h -29.06 m -14.54,0 h -14.52 l -3.03,-0.82 -2.14,-2.15 -0.82,-3.03 v -22.33 m 0,-22.34 V 586 l 0.82,-3.03 2.15,-2.15 3.04,-0.82 h 14.52"
     stroke="#5e5e5e"
     stroke-width="3"
     fill="none"
     id="path150" />
  <use
     xlink:href="#z"
     transform="translate(465.20645,612.38889)"
     id="use152"
     x="0"
     y="0"
     width="100%"
     height="100%" />
  <use
     xlink:href="#t"
     transform="translate(459.77435,633.72222)"
     id="use154"
     x="0"
     y="0"
     width="100%"
     height="100%" />
  <path
     d="m 560.84,586 c 0,-3.3 2.68,-6 6,-6 H 654 c 3.3,0 6,2.7 6,6 v 67 c 0,3.3 -2.7,6 -6,6 h -87.16 c -3.32,0 -6,-2.7 -6,-6 z"
     fill="#ffdba9"
     id="path156" />
  <path
     d="m 595.9,580 h 29.05 m 14.52,0 H 654 l 3.03,0.82 2.15,2.15 0.82,3.03 v 22.33 m 0,22.34 V 653 l -0.82,3.03 -2.15,2.15 L 654,659 h -14.53 m -14.52,0 h -29.06 m -14.54,0 h -14.52 l -3.03,-0.82 -2.14,-2.15 -0.82,-3.03 v -22.33 m 0,-22.34 V 586 l 0.82,-3.03 2.15,-2.15 3.04,-0.82 h 14.52"
     stroke="#5e5e5e"
     stroke-width="3"
     fill="none"
     id="path158" />
  <use
     xlink:href="#z"
     transform="translate(585.20645,612.38889)"
     id="use160"
     x="0"
     y="0"
     width="100%"
     height="100%" />
  <use
     xlink:href="#u"
     transform="translate(574.34225,633.72222)"
     id="use162"
     x="0"
     y="0"
     width="100%"
     height="100%" />
  <path
     d="M 490.42,560 V 542.5"
     stroke="#5e5e5e"
     stroke-width="2"
     fill="none"
     id="path164" />
  <path
     d="M 490.42,575.26 485.78,561 h 9.27 z"
     stroke="#5e5e5e"
     stroke-width="2"
     fill="#5e5e5e"
     id="path166" />
  <path
     d="m 491.42,542.53 h -2 v -1.03 h 2 z"
     fill="#5e5e5e"
     id="path168" />
  <path
     d="M 489.03,661.5 V 716"
     stroke="#5e5e5e"
     stroke-width="2"
     fill="none"
     id="path170" />
  <path
     d="m 490.03,661.53 h -2 v -1.03 h 2 z"
     fill="#5e5e5e"
     id="path172" />
  <path
     d="M 489.03,731.26 484.4,717 h 9.26 z"
     stroke="#5e5e5e"
     stroke-width="2"
     fill="#5e5e5e"
     id="path174" />
  <path
     d="M 610.42,577.5 V 560"
     stroke="#5e5e5e"
     stroke-width="2"
     fill="none"
     id="path176" />
  <path
     d="m 611.42,578.5 h -2 v -1.03 h 2 z"
     fill="#5e5e5e"
     id="path178" />
  <path
     d="m 610.42,544.74 4.63,14.26 h -9.27 z"
     stroke="#5e5e5e"
     stroke-width="2"
     fill="#5e5e5e"
     id="path180" />
  <path
     d="m 610.42,679 v 54.5"
     stroke="#5e5e5e"
     stroke-width="2"
     fill="none"
     id="path182" />
  <path
     d="m 610.42,663.74 4.63,14.26 h -9.27 z"
     stroke="#5e5e5e"
     stroke-width="2"
     fill="#5e5e5e"
     id="path184" />
  <path
     d="m 611.42,734.5 h -2 v -1.03 h 2 z"
     fill="#5e5e5e"
     id="path186" />
  <path
     d="m 336.78,340 v -8 m 0,-32 c 9.2,0 16.66,7.16 16.66,16 0,8.84 -7.46,16 -16.66,16 -9.2,0 -16.67,-7.16 -16.67,-16 0,-8.84 7.47,-16 16.68,-16 z"
     stroke="#5e5e5e"
     stroke-width="3"
     fill="#ffffff"
     id="path188" />
  <path
     d="m 336.1,340 v -8 h 1.34 v 8 z"
     fill="none"
     id="path190" />
  <path
     d="m 336.78,341.5 v 7.98 c 0,0 0,0.02 0.02,0.02 0,0 0.02,0 0.02,0.02 v 7.98"
     stroke="#5e5e5e"
     stroke-width="3"
     fill="none"
     id="path194" />
  <path
     d="m 338.28,341.54 h -3 V 340 h 3 v -3 z m 0.04,17.46 h -3 v -1.54 h 3 z"
     fill="#5e5e5e"
     id="path196" />
  <text
     xml:space="preserve"
     style="font-style:normal;font-weight:normal;font-size:17.3333px;line-height:1.25;font-family:sans-serif;fill:#333333;fill-opacity:1;stroke:none"
     x="142.56204"
     y="469.26218"
     id="text9755"><tspan
       sodipodi:role="line"
       id="tspan9753"
       x="142.56204"
       y="469.26218"
       style="font-size:17.3333px;text-align:center;text-anchor:middle;fill:#333333;fill-opacity:1">Knowledge</tspan><tspan
       sodipodi:role="line"
       x="142.56204"
       y="490.9288"
       id="tspan9757"
       style="font-size:17.3333px;text-align:center;text-anchor:middle;fill:#333333;fill-opacity:1">Compilation</tspan><tspan
       sodipodi:role="line"
       x="142.56204"
       y="512.5954"
       id="tspan9759"
       style="font-size:17.3333px;text-align:center;text-anchor:middle;fill:#333333;fill-opacity:1">Engine</tspan></text>
</svg>
