<?xml version="1.0" encoding="UTF-8"?><svg xmlns="http://www.w3.org/2000/svg" xmlns:xlink="http://www.w3.org/1999/xlink" fill-opacity="1" color-rendering="auto" color-interpolation="auto" text-rendering="auto" stroke="black" stroke-linecap="square" width="725" stroke-miterlimit="10" shape-rendering="auto" stroke-opacity="1" fill="black" stroke-dasharray="none" font-weight="normal" stroke-width="1" height="197" font-family="'Dialog'" font-style="normal" stroke-linejoin="miter" font-size="12px" stroke-dashoffset="0" image-rendering="auto">
  <!--Generated by ySVG 2.5-->
  <defs id="genericDefs"/>
  <g>
    <defs id="defs1">
      <clipPath clipPathUnits="userSpaceOnUse" id="clipPath1">
        <path d="M0 0 L725 0 L725 197 L0 197 L0 0 Z"/>
      </clipPath>
      <clipPath clipPathUnits="userSpaceOnUse" id="clipPath2">
        <path d="M285 246 L1010 246 L1010 443 L285 443 L285 246 Z"/>
      </clipPath>
    </defs>
    <g fill="white" text-rendering="geometricPrecision" shape-rendering="geometricPrecision" transform="matrix(1,0,0,1,-285,-246)" stroke="white">
      <rect x="454.4912" y="255" clip-path="url(#clipPath2)" width="101.5508" rx="4" ry="4" height="30" stroke="none"/>
    </g>
    <g text-rendering="geometricPrecision" stroke-miterlimit="1.45" shape-rendering="geometricPrecision" transform="matrix(1,0,0,1,-285,-246)" stroke-linecap="butt">
      <rect x="454.4912" y="255" clip-path="url(#clipPath2)" fill="none" width="101.5508" rx="4" ry="4" height="30"/>
      <text x="461.4912" xml:space="preserve" y="274.5352" clip-path="url(#clipPath2)" font-family="sans-serif" stroke="none">Pre-Processing</text>
    </g>
    <g fill="white" text-rendering="geometricPrecision" shape-rendering="geometricPrecision" transform="matrix(1,0,0,1,-285,-246)" stroke="white">
      <rect x="608.0908" y="246.5" clip-path="url(#clipPath2)" width="69.9629" rx="4" ry="4" height="47" stroke="none"/>
    </g>
    <g text-rendering="geometricPrecision" stroke-miterlimit="1.45" shape-rendering="geometricPrecision" transform="matrix(1,0,0,1,-285,-246)" stroke-linecap="butt">
      <rect x="608.0908" y="246.5" clip-path="url(#clipPath2)" fill="none" width="69.9629" rx="4" ry="4" height="47"/>
      <text x="615.0908" xml:space="preserve" y="267.4688" clip-path="url(#clipPath2)" font-family="sans-serif" stroke="none">Predictor </text>
      <text x="616.96" xml:space="preserve" y="281.6016" clip-path="url(#clipPath2)" font-family="sans-serif" stroke="none">Selection</text>
    </g>
    <g fill="rgb(255,204,0)" text-rendering="geometricPrecision" shape-rendering="geometricPrecision" transform="matrix(1,0,0,1,-285,-246)" stroke="rgb(255,204,0)">
      <rect x="745.4453" y="255" clip-path="url(#clipPath2)" width="31.7539" rx="4" ry="4" height="30" stroke="none"/>
    </g>
    <g text-rendering="geometricPrecision" stroke-miterlimit="1.45" shape-rendering="geometricPrecision" transform="matrix(1,0,0,1,-285,-246)" stroke-linecap="butt">
      <rect x="745.4453" y="255" clip-path="url(#clipPath2)" fill="none" width="31.7539" rx="4" ry="4" height="30"/>
      <text x="752.4453" xml:space="preserve" y="274.5352" clip-path="url(#clipPath2)" font-family="sans-serif" stroke="none">SKI</text>
    </g>
    <g fill="white" text-rendering="geometricPrecision" shape-rendering="geometricPrecision" transform="matrix(1,0,0,1,-285,-246)" stroke="white">
      <rect x="730.1025" y="338" clip-path="url(#clipPath2)" width="62.4395" rx="4" ry="4" height="30" stroke="none"/>
    </g>
    <g text-rendering="geometricPrecision" stroke-miterlimit="1.45" shape-rendering="geometricPrecision" transform="matrix(1,0,0,1,-285,-246)" stroke-linecap="butt">
      <rect x="730.1025" y="338" clip-path="url(#clipPath2)" fill="none" width="62.4395" rx="4" ry="4" height="30"/>
      <text x="737.1025" xml:space="preserve" y="357.5352" clip-path="url(#clipPath2)" font-family="sans-serif" stroke="none">Training</text>
    </g>
    <g fill="white" text-rendering="geometricPrecision" shape-rendering="geometricPrecision" transform="matrix(1,0,0,1,-285,-246)" stroke="white">
      <rect x="725.1396" y="412.5" clip-path="url(#clipPath2)" width="72.3652" rx="4" ry="4" height="30" stroke="none"/>
    </g>
    <g text-rendering="geometricPrecision" stroke-miterlimit="1.45" shape-rendering="geometricPrecision" transform="matrix(1,0,0,1,-285,-246)" stroke-linecap="butt">
      <rect x="725.1396" y="412.5" clip-path="url(#clipPath2)" fill="none" width="72.3652" rx="4" ry="4" height="30"/>
      <text x="732.1396" xml:space="preserve" y="432.0352" clip-path="url(#clipPath2)" font-family="sans-serif" stroke="none">Validation</text>
    </g>
    <g fill="white" text-rendering="geometricPrecision" shape-rendering="geometricPrecision" transform="matrix(1,0,0,1,-285,-246)" stroke="white">
      <rect x="608.0908" y="412.5" clip-path="url(#clipPath2)" width="67.877" rx="4" ry="4" height="30" stroke="none"/>
    </g>
    <g text-rendering="geometricPrecision" stroke-miterlimit="1.45" shape-rendering="geometricPrecision" transform="matrix(1,0,0,1,-285,-246)" stroke-linecap="butt">
      <rect x="608.0908" y="412.5" clip-path="url(#clipPath2)" fill="none" width="67.877" rx="4" ry="4" height="30"/>
      <text x="615.0908" xml:space="preserve" y="432.0352" clip-path="url(#clipPath2)" font-family="sans-serif" stroke="none">Inference</text>
    </g>
    <g fill="rgb(255,204,0)" text-rendering="geometricPrecision" shape-rendering="geometricPrecision" transform="matrix(1,0,0,1,-285,-246)" stroke="rgb(255,204,0)">
      <rect x="867.4873" y="412.5" clip-path="url(#clipPath2)" width="34.8008" rx="4" ry="4" height="30" stroke="none"/>
    </g>
    <g text-rendering="geometricPrecision" stroke-miterlimit="1.45" shape-rendering="geometricPrecision" transform="matrix(1,0,0,1,-285,-246)" stroke-linecap="butt">
      <rect x="867.4873" y="412.5" clip-path="url(#clipPath2)" fill="none" width="34.8008" rx="4" ry="4" height="30"/>
      <text x="874.4873" xml:space="preserve" y="432.0352" clip-path="url(#clipPath2)" font-family="sans-serif" stroke="none">SKE</text>
    </g>
    <g fill="silver" text-rendering="geometricPrecision" shape-rendering="geometricPrecision" transform="matrix(1,0,0,1,-285,-246)" stroke="silver">
      <path d="M285.4385 246.5 L390.7423 246.5 L402.4424 270 L390.7423 293.5 L285.4385 293.5 L297.1385 270 Z" fill-rule="evenodd" clip-path="url(#clipPath2)" stroke="none"/>
    </g>
    <g text-rendering="geometricPrecision" stroke-miterlimit="1.45" shape-rendering="geometricPrecision" transform="matrix(1,0,0,1,-285,-246)" stroke-linecap="butt">
      <path fill="none" d="M285.4385 246.5 L390.7423 246.5 L402.4424 270 L390.7423 293.5 L285.4385 293.5 L297.1385 270 Z" fill-rule="evenodd" clip-path="url(#clipPath2)"/>
      <text x="303.9385" xml:space="preserve" y="267.4688" clip-path="url(#clipPath2)" font-family="sans-serif" stroke="none">Sub-symbolic</text>
      <text x="330.5752" xml:space="preserve" y="281.6016" clip-path="url(#clipPath2)" font-family="sans-serif" stroke="none">Data</text>
    </g>
    <g fill="silver" text-rendering="geometricPrecision" shape-rendering="geometricPrecision" transform="matrix(1,0,0,1,-285,-246)" stroke="silver">
      <path d="M847.286 246.5 L931.8896 246.5 L922.4894 270 L931.8896 293.5 L847.286 293.5 L837.8857 270 Z" fill-rule="evenodd" clip-path="url(#clipPath2)" stroke="none"/>
    </g>
    <g text-rendering="geometricPrecision" stroke-miterlimit="1.45" shape-rendering="geometricPrecision" transform="matrix(1,0,0,1,-285,-246)" stroke-linecap="butt">
      <path fill="none" d="M847.286 246.5 L931.8896 246.5 L922.4894 270 L931.8896 293.5 L847.286 293.5 L837.8857 270 Z" fill-rule="evenodd" clip-path="url(#clipPath2)"/>
      <text x="858.916" xml:space="preserve" y="267.4688" clip-path="url(#clipPath2)" font-family="sans-serif" stroke="none">Symbolic</text>
      <text x="853.001" xml:space="preserve" y="281.6016" clip-path="url(#clipPath2)" font-family="sans-serif" stroke="none">Knowledge</text>
    </g>
    <g fill="silver" text-rendering="geometricPrecision" shape-rendering="geometricPrecision" transform="matrix(1,0,0,1,-285,-246)" stroke="silver">
      <path d="M462.8176 412.5 L547.1416 412.5 L537.7723 427.5 L547.1416 442.5 L462.8176 442.5 L453.4482 427.5 Z" fill-rule="evenodd" clip-path="url(#clipPath2)" stroke="none"/>
    </g>
    <g text-rendering="geometricPrecision" stroke-miterlimit="1.45" shape-rendering="geometricPrecision" transform="matrix(1,0,0,1,-285,-246)" stroke-linecap="butt">
      <path fill="none" d="M462.8176 412.5 L547.1416 412.5 L537.7723 427.5 L547.1416 442.5 L462.8176 442.5 L453.4482 427.5 Z" fill-rule="evenodd" clip-path="url(#clipPath2)"/>
      <text x="468.1504" xml:space="preserve" y="432.0352" clip-path="url(#clipPath2)" font-family="sans-serif" stroke="none">Predictions</text>
    </g>
    <g fill="rgb(255,204,0)" text-rendering="geometricPrecision" shape-rendering="geometricPrecision" transform="matrix(1,0,0,1,-285,-246)" stroke="rgb(255,204,0)">
      <rect x="960.1699" y="338" clip-path="url(#clipPath2)" width="49.6602" rx="4" ry="4" height="30" stroke="none"/>
    </g>
    <g text-rendering="geometricPrecision" stroke-miterlimit="1.45" shape-rendering="geometricPrecision" transform="matrix(1,0,0,1,-285,-246)" stroke-linecap="butt">
      <rect x="960.1699" y="338" clip-path="url(#clipPath2)" fill="none" width="49.6602" rx="4" ry="4" height="30"/>
      <text x="967.1699" xml:space="preserve" y="357.5352" clip-path="url(#clipPath2)" font-family="sans-serif" stroke="none">Fixing</text>
      <path fill="none" d="M556.0353 270 L600.096 270" clip-path="url(#clipPath2)"/>
      <path d="M608.096 270 L596.096 265 L599.096 270 L596.096 275 Z" clip-path="url(#clipPath2)" stroke="none"/>
      <path fill="none" d="M678.0334 270 L737.4209 270" clip-path="url(#clipPath2)"/>
      <path d="M745.4209 270 L733.4209 265 L736.4209 270 L733.4209 275 Z" clip-path="url(#clipPath2)" stroke="none"/>
      <path fill="none" d="M761.3223 285.0356 L761.3223 329.9669" clip-path="url(#clipPath2)"/>
      <path d="M761.3223 337.9669 L766.3223 325.9669 L761.3223 328.9669 L756.3223 325.9669 Z" clip-path="url(#clipPath2)" stroke="none"/>
      <path fill="none" d="M761.3223 368.0237 L761.3223 404.4857" clip-path="url(#clipPath2)"/>
      <path d="M761.3223 412.4857 L766.3223 400.4857 L761.3223 403.4857 L756.3223 400.4857 Z" clip-path="url(#clipPath2)" stroke="none"/>
      <path fill="none" d="M725.1208 427.5 L683.9881 427.5" clip-path="url(#clipPath2)"/>
      <path d="M675.9881 427.5 L687.9881 432.5 L684.9881 427.5 L687.9881 422.5 Z" clip-path="url(#clipPath2)" stroke="none"/>
      <path fill="none" d="M797.4929 427.5 L859.5197 427.5" clip-path="url(#clipPath2)"/>
      <path d="M867.5197 427.5 L855.5197 422.5 L858.5197 427.5 L855.5197 432.5 Z" clip-path="url(#clipPath2)" stroke="none"/>
      <path fill="none" d="M402.429 270 L446.4755 270" clip-path="url(#clipPath2)"/>
      <path d="M454.4755 270 L442.4755 265 L445.4755 270 L442.4755 275 Z" clip-path="url(#clipPath2)" stroke="none"/>
      <path fill="none" d="M837.8568 270 L785.2047 270" clip-path="url(#clipPath2)"/>
      <path d="M777.2047 270 L789.2047 275 L786.2047 270 L789.2047 265 Z" clip-path="url(#clipPath2)" stroke="none"/>
      <path fill="none" d="M608.0836 427.5 L545.7947 427.5" clip-path="url(#clipPath2)"/>
      <path d="M537.7947 427.5 L549.7947 432.5 L546.7947 427.5 L549.7947 422.5 Z" clip-path="url(#clipPath2)" stroke="none"/>
      <path fill="none" d="M902.2687 427.5 L939.3995 427.5 L949.8597 426.9762 L958.9403 425.4047 L966.6412 422.7856 L972.9624 419.1187 L977.9038 414.4043 L981.4656 408.6422 L983.6476 401.8324 L984.45 393.975 L984.6912 376.0048" clip-path="url(#clipPath2)"/>
      <path d="M984.7986 368.0055 L979.638 379.9373 L984.6778 377.0047 L989.6371 380.0715 Z" clip-path="url(#clipPath2)" stroke="none"/>
      <path fill="none" d="M984.819 337.9765 L984.45 307.35 L983.6476 298.5961 L981.4656 291.0094 L977.9038 284.5898 L972.9624 279.3375 L966.6412 275.2523 L958.9403 272.3344 L949.8597 270.5836 L939.3995 270 L930.4976 270" clip-path="url(#clipPath2)"/>
      <path d="M922.4976 270 L934.4976 275 L931.4976 270 L934.4976 265 Z" clip-path="url(#clipPath2)" stroke="none"/>
    </g>
  </g>
</svg>
